<svg id="svg" version="1.1" width="400" height="400" viewBox="0 0 400 400" xmlns="http://www.w3.org/2000/svg" xmlns:xlink="http://www.w3.org/1999/xlink" ><g id="svgg"><path id="path0" d="M87.299 76.632 L 36.398 127.600 70.166 127.600 C 88.739 127.600,104.219 127.709,104.567 127.843 C 105.090 128.043,105.204 128.860,105.221 132.543 C 105.249 138.703,106.227 145.892,107.623 150.200 C 108.050 151.520,108.400 152.877,108.400 153.215 C 108.400 153.554,108.760 154.537,109.200 155.400 C 109.640 156.263,110.000 157.381,110.000 157.885 C 110.000 158.388,110.173 158.800,110.384 158.800 C 110.595 158.800,110.991 159.565,111.264 160.500 C 111.538 161.435,111.866 162.290,111.994 162.400 C 112.123 162.510,112.851 163.830,113.613 165.333 C 114.374 166.836,115.223 168.253,115.499 168.482 C 115.774 168.711,116.000 169.091,116.000 169.327 C 116.000 169.727,117.693 172.417,118.600 173.460 C 118.820 173.712,119.540 174.585,120.200 175.400 C 128.734 185.930,145.581 196.262,157.400 198.214 C 158.280 198.360,159.900 198.750,161.000 199.082 C 162.517 199.540,165.944 199.734,175.200 199.886 C 186.824 200.077,187.442 200.126,188.300 200.913 C 189.332 201.861,189.469 203.491,188.613 204.624 C 188.290 205.051,188.020 205.888,188.013 206.485 C 188.006 207.082,187.640 208.484,187.200 209.600 C 186.528 211.305,186.400 212.573,186.400 217.529 C 186.400 222.402,186.539 223.823,187.200 225.704 C 187.640 226.956,188.000 228.213,188.000 228.498 C 188.000 228.964,188.546 230.062,190.954 234.432 C 192.039 236.401,194.503 240.131,195.029 240.600 C 195.855 241.337,197.200 243.886,197.200 244.714 C 197.200 247.424,195.835 247.960,187.242 248.628 C 173.051 249.730,158.648 251.969,149.000 254.572 C 144.286 255.844,139.292 257.311,137.892 257.835 C 137.062 258.146,136.066 258.400,135.676 258.400 C 135.287 258.400,134.263 258.760,133.400 259.200 C 132.537 259.640,131.637 260.000,131.400 260.000 C 131.163 260.000,130.263 260.360,129.400 260.800 C 128.537 261.240,127.644 261.602,127.415 261.603 C 126.362 261.612,116.592 267.074,111.826 270.318 C 105.924 274.335,97.910 281.499,96.072 284.400 C 95.724 284.950,94.897 286.104,94.234 286.965 C 91.368 290.689,88.239 297.594,85.801 305.570 C 83.098 314.416,83.084 326.980,85.770 334.200 C 86.097 335.080,86.373 336.035,86.382 336.322 C 86.403 336.945,87.695 340.015,88.805 342.079 C 89.242 342.893,89.600 343.740,89.600 343.961 C 89.600 344.322,90.718 346.171,92.100 348.097 C 92.375 348.480,93.320 349.803,94.200 351.036 C 95.899 353.417,100.862 358.800,101.359 358.800 C 101.521 358.800,102.677 359.611,103.927 360.603 C 106.977 363.023,107.379 363.303,111.400 365.824 C 113.574 367.187,118.706 369.848,121.000 370.803 C 121.440 370.986,122.824 371.600,124.075 372.168 C 125.327 372.735,126.542 373.200,126.777 373.200 C 127.011 373.200,127.875 373.560,128.696 374.000 C 129.516 374.440,130.664 374.800,131.245 374.800 C 131.826 374.800,132.507 375.047,132.758 375.349 C 133.009 375.652,134.156 376.022,135.307 376.173 C 136.458 376.324,137.760 376.681,138.200 376.966 C 138.640 377.251,140.080 377.615,141.400 377.775 C 142.720 377.934,144.160 378.292,144.600 378.571 C 145.040 378.850,147.110 379.180,149.200 379.305 C 151.290 379.431,153.540 379.757,154.200 380.030 C 157.995 381.600,192.393 381.450,199.200 379.834 C 200.630 379.494,202.807 379.213,204.039 379.208 C 205.270 379.204,206.800 378.947,207.439 378.637 C 208.077 378.328,209.770 377.947,211.200 377.791 C 212.630 377.634,214.252 377.275,214.805 376.992 C 215.358 376.709,216.708 376.348,217.805 376.190 C 218.902 376.032,220.070 375.678,220.400 375.405 C 220.730 375.131,221.867 374.795,222.927 374.658 C 223.986 374.520,225.241 374.136,225.716 373.804 C 226.190 373.472,226.856 373.200,227.195 373.200 C 227.534 373.200,228.484 372.840,229.304 372.400 C 230.125 371.960,231.003 371.600,231.255 371.600 C 231.506 371.600,232.452 371.259,233.356 370.842 C 237.165 369.084,245.446 365.112,246.000 364.776 C 246.330 364.576,247.198 364.143,247.928 363.815 C 249.548 363.086,258.167 357.378,259.383 356.229 C 259.865 355.773,261.146 354.651,262.229 353.736 C 264.808 351.558,271.357 344.923,271.552 344.292 C 271.635 344.021,272.276 343.247,272.977 342.572 C 273.677 341.896,274.854 340.411,275.592 339.272 C 276.331 338.132,277.084 337.200,277.267 337.200 C 277.450 337.200,277.600 336.958,277.600 336.662 C 277.600 336.366,277.960 335.798,278.400 335.400 C 278.840 335.002,279.200 334.372,279.200 334.000 C 279.200 333.628,279.560 332.998,280.000 332.600 C 280.440 332.202,280.800 331.660,280.800 331.396 C 280.800 331.132,281.519 329.495,282.398 327.758 C 283.277 326.021,283.997 324.357,283.998 324.060 C 283.999 323.764,284.249 322.954,284.552 322.260 C 285.484 320.134,286.701 315.934,287.178 313.200 C 287.427 311.770,287.793 309.700,287.990 308.600 C 289.603 299.627,287.977 284.321,284.634 277.000 C 284.333 276.340,283.696 274.900,283.218 273.800 C 282.741 272.700,282.178 271.530,281.967 271.200 C 281.756 270.870,281.297 269.970,280.947 269.200 C 280.597 268.430,280.186 267.710,280.034 267.600 C 279.882 267.490,279.335 266.705,278.819 265.856 C 278.303 265.007,277.502 263.892,277.040 263.379 C 276.578 262.865,275.607 261.735,274.882 260.867 C 273.441 259.143,265.629 251.375,262.878 248.930 C 261.931 248.089,260.084 246.385,258.774 245.145 C 257.463 243.904,255.628 242.257,254.696 241.485 C 253.763 240.713,252.428 239.568,251.730 238.941 C 251.031 238.313,250.068 237.530,249.589 237.200 C 248.607 236.522,242.511 231.857,241.615 231.096 C 241.293 230.823,240.303 230.079,239.415 229.442 C 235.541 226.663,228.672 219.657,227.464 217.253 C 225.275 212.895,224.659 207.734,225.799 203.320 C 226.467 200.734,228.401 196.400,228.886 196.400 C 229.059 196.400,229.200 196.201,229.200 195.959 C 229.200 194.761,238.323 185.180,240.744 183.835 C 241.105 183.635,241.544 183.230,241.720 182.935 C 241.896 182.641,242.301 182.400,242.620 182.400 C 242.939 182.400,243.200 182.255,243.200 182.078 C 243.200 181.902,244.505 180.779,246.100 179.583 C 250.591 176.216,259.571 166.792,262.709 162.152 C 266.236 156.937,269.997 150.036,270.002 148.770 C 270.004 148.456,270.256 147.719,270.563 147.131 C 270.869 146.543,271.323 145.115,271.572 143.958 C 271.820 142.801,272.194 141.648,272.404 141.395 C 272.613 141.143,272.897 139.331,273.034 137.368 C 273.171 135.406,273.534 132.784,273.842 131.542 C 274.556 128.653,274.561 122.005,273.850 119.184 C 273.547 117.983,273.193 115.517,273.063 113.705 C 272.932 111.893,272.571 109.913,272.260 109.305 C 271.949 108.697,271.565 107.420,271.407 106.467 C 271.248 105.514,270.868 104.254,270.562 103.667 C 269.713 102.040,269.838 99.331,270.800 98.507 C 271.240 98.130,271.600 97.592,271.600 97.311 C 271.600 97.030,271.735 96.799,271.900 96.798 C 272.230 96.796,274.387 94.826,276.082 92.979 C 276.677 92.330,277.667 91.312,278.282 90.715 C 278.897 90.119,279.608 89.399,279.862 89.115 C 280.116 88.832,281.916 87.042,283.862 85.138 C 285.808 83.235,287.887 81.165,288.482 80.538 C 289.077 79.912,290.067 78.917,290.682 78.327 C 291.297 77.737,292.292 76.702,292.894 76.027 C 293.495 75.352,294.149 74.800,294.348 74.800 C 294.546 74.800,294.984 74.378,295.322 73.862 C 295.660 73.347,296.596 72.312,297.402 71.562 C 298.898 70.171,302.990 66.037,305.186 63.700 C 305.857 62.985,306.551 62.400,306.727 62.400 C 306.903 62.400,307.564 61.713,308.196 60.872 C 308.828 60.032,310.032 58.828,310.872 58.196 C 311.713 57.564,312.400 56.909,312.400 56.741 C 312.400 56.198,314.419 54.400,315.028 54.400 C 316.099 54.400,316.400 56.365,316.395 63.326 C 316.388 71.135,316.262 71.920,314.935 72.425 C 314.410 72.624,313.607 73.420,313.151 74.194 C 312.694 74.967,312.176 75.600,311.998 75.600 C 311.820 75.600,311.553 76.491,311.403 77.580 C 311.253 78.669,310.876 79.771,310.565 80.029 C 309.712 80.737,309.742 184.626,310.596 185.754 C 310.910 186.169,311.284 187.290,311.428 188.246 C 311.625 189.559,312.101 190.401,313.378 191.692 C 315.882 194.223,316.378 194.550,318.585 195.125 C 321.980 196.011,322.788 196.108,323.304 195.691 C 323.577 195.471,324.584 195.161,325.542 195.003 C 326.501 194.845,327.598 194.419,327.981 194.058 C 328.365 193.696,329.156 193.060,329.739 192.644 C 330.323 192.228,330.800 191.649,330.800 191.358 C 330.800 191.067,331.136 190.648,331.547 190.429 C 332.052 190.158,332.379 189.384,332.558 188.031 C 332.704 186.932,332.998 185.925,333.212 185.793 C 333.928 185.350,333.722 80.726,333.002 79.346 C 332.674 78.716,332.404 77.702,332.402 77.093 C 332.400 75.963,328.213 71.274,326.681 70.687 C 325.693 70.307,325.630 43.142,326.615 42.316 C 326.954 42.032,327.719 41.297,328.315 40.682 C 328.912 40.067,329.912 39.077,330.538 38.482 C 331.165 37.887,333.235 35.808,335.138 33.862 C 337.042 31.916,338.831 30.116,339.113 29.862 C 339.656 29.372,341.558 27.469,342.673 26.300 C 343.308 25.633,338.444 25.602,240.770 25.632 L 138.200 25.665 87.299 76.632 M187.074 64.429 C 187.693 64.665,189.460 65.092,191.000 65.379 C 200.995 67.242,213.594 77.005,220.600 88.315 C 220.820 88.670,221.604 89.850,222.342 90.936 C 227.246 98.154,235.200 118.748,235.200 124.225 C 235.200 124.706,235.472 125.871,235.805 126.815 C 237.999 133.033,237.867 154.734,235.596 161.302 C 235.158 162.567,234.800 163.800,234.800 164.041 C 234.800 164.282,234.541 165.046,234.225 165.740 C 233.909 166.433,233.394 167.630,233.081 168.400 C 231.663 171.891,224.611 179.801,221.134 181.800 C 212.682 186.660,212.223 186.887,207.845 188.377 C 205.885 189.044,198.567 190.159,196.400 190.122 C 194.049 190.081,187.424 189.110,185.788 188.567 C 181.687 187.205,179.338 186.230,177.274 185.033 C 176.105 184.355,174.767 183.587,174.301 183.327 C 170.354 181.122,159.738 169.922,157.535 165.638 C 157.241 165.067,156.891 164.510,156.756 164.400 C 156.622 164.290,156.204 163.660,155.828 163.000 C 155.452 162.340,154.719 161.080,154.198 160.200 C 148.288 150.212,144.435 137.636,141.942 120.200 C 138.862 98.664,147.179 77.964,162.200 69.778 C 165.531 67.963,168.172 66.800,168.964 66.800 C 169.336 66.800,170.147 66.538,170.766 66.217 C 171.386 65.897,172.952 65.461,174.247 65.249 C 175.541 65.037,177.050 64.680,177.600 64.457 C 178.942 63.912,185.664 63.892,187.074 64.429 M212.061 258.300 C 212.335 258.575,212.814 258.800,213.124 258.800 C 213.829 258.800,217.600 261.216,217.600 261.667 C 217.600 261.850,217.798 262.000,218.040 262.000 C 218.281 262.000,219.912 263.080,221.664 264.400 C 223.416 265.720,224.947 266.800,225.067 266.800 C 225.187 266.800,225.850 267.258,226.542 267.817 C 227.234 268.376,228.210 269.141,228.710 269.517 C 229.211 269.893,229.873 270.425,230.181 270.700 C 230.490 270.975,230.848 271.200,230.977 271.200 C 231.170 271.200,233.925 273.289,236.351 275.276 C 236.654 275.524,238.411 276.960,240.255 278.467 C 244.595 282.015,246.382 283.766,248.825 286.868 C 249.922 288.260,251.382 290.076,252.069 290.903 C 253.777 292.959,258.400 300.983,258.400 301.893 C 258.400 302.299,258.760 303.337,259.200 304.200 C 259.640 305.063,260.003 306.316,260.006 306.985 C 260.009 307.653,260.271 308.920,260.588 309.800 C 261.410 312.081,261.418 321.903,260.600 323.862 C 260.270 324.651,259.996 325.951,259.991 326.749 C 259.986 327.547,259.626 328.985,259.191 329.944 C 258.756 330.903,258.400 331.999,258.400 332.380 C 258.400 333.003,256.726 336.566,255.483 338.586 C 252.577 343.312,248.574 347.802,244.147 351.303 C 241.701 353.237,238.974 354.940,236.118 356.317 C 235.723 356.507,234.644 357.054,233.721 357.531 C 232.797 358.009,231.694 358.400,231.270 358.400 C 230.845 358.400,230.278 358.665,230.009 358.989 C 229.740 359.314,228.863 359.684,228.060 359.813 C 227.257 359.942,226.109 360.315,225.508 360.642 C 224.907 360.969,223.467 361.335,222.308 361.456 C 221.149 361.577,219.660 361.915,219.000 362.208 C 218.340 362.501,216.180 362.927,214.200 363.156 C 212.220 363.384,208.440 363.862,205.800 364.217 C 200.779 364.893,191.253 364.794,184.800 363.998 C 183.150 363.795,180.092 363.450,178.004 363.232 C 175.916 363.014,173.486 362.574,172.604 362.254 C 171.722 361.934,170.183 361.592,169.184 361.495 C 168.185 361.397,166.745 361.036,165.984 360.692 C 165.223 360.349,163.760 359.954,162.733 359.814 C 161.706 359.675,160.649 359.300,160.384 358.980 C 160.119 358.661,159.479 358.400,158.962 358.400 C 158.096 358.400,156.991 357.979,152.600 355.974 C 151.720 355.573,149.920 354.752,148.600 354.151 C 145.918 352.930,139.901 349.125,138.466 347.742 C 137.953 347.247,136.783 346.262,135.866 345.553 C 134.181 344.249,129.535 339.168,129.239 338.305 C 129.151 338.047,128.746 337.479,128.339 337.043 C 127.933 336.606,127.600 336.028,127.600 335.758 C 127.600 335.488,127.438 335.207,127.240 335.133 C 126.745 334.950,123.732 328.888,122.745 326.090 C 121.866 323.599,121.536 322.397,120.609 318.318 C 119.909 315.233,119.779 306.160,120.404 303.997 C 120.626 303.229,120.976 301.570,121.180 300.311 C 121.385 299.052,121.818 297.432,122.144 296.711 C 122.470 295.990,122.862 294.950,123.015 294.400 C 123.334 293.255,125.280 289.865,127.953 285.800 C 129.634 283.242,135.285 277.222,137.633 275.485 C 141.290 272.782,142.426 272.019,144.200 271.078 C 147.434 269.363,153.200 266.800,153.825 266.800 C 154.143 266.800,155.075 266.440,155.896 266.000 C 156.716 265.560,157.668 265.200,158.009 265.200 C 158.351 265.200,159.337 264.840,160.200 264.400 C 161.063 263.960,162.190 263.600,162.704 263.600 C 163.219 263.600,164.126 263.351,164.720 263.047 C 165.314 262.743,166.790 262.370,168.000 262.218 C 169.210 262.066,170.740 261.702,171.400 261.408 C 172.060 261.114,174.040 260.745,175.800 260.589 C 177.560 260.432,179.214 260.133,179.476 259.923 C 180.049 259.464,186.246 258.829,190.400 258.803 C 192.050 258.793,194.300 258.527,195.400 258.212 C 198.015 257.464,211.296 257.534,212.061 258.300 " stroke="none" fill="#ffffff" fill-rule="evenodd"></path><path id="path1" d="M0.000 200.000 L 0.000 400.000 200.000 400.000 L 400.000 400.000 400.000 200.000 L 400.000 0.000 200.000 0.000 L 0.000 0.000 0.000 200.000 M344.672 24.645 C 345.152 24.774,345.635 25.113,345.744 25.399 C 345.956 25.950,339.152 33.200,338.424 33.200 C 338.191 33.200,338.000 33.371,338.000 33.581 C 338.000 34.077,334.077 38.000,333.581 38.000 C 333.371 38.000,333.200 38.197,333.200 38.438 C 333.200 38.679,331.850 40.175,330.200 41.762 L 327.200 44.647 327.200 56.934 L 327.200 69.220 328.289 69.634 C 329.298 70.017,330.050 70.590,331.305 71.928 C 331.577 72.219,332.115 72.754,332.500 73.117 C 332.885 73.480,333.200 73.984,333.200 74.235 C 333.200 74.486,333.605 75.207,334.100 75.836 L 335.000 76.980 335.125 129.790 C 335.269 190.508,335.345 188.173,333.115 191.585 C 332.224 192.949,331.203 194.174,330.847 194.306 C 330.491 194.439,329.965 194.874,329.677 195.274 C 329.390 195.673,328.908 196.000,328.606 196.000 C 328.304 196.000,327.742 196.315,327.357 196.700 C 326.381 197.676,317.687 197.738,316.542 196.777 C 316.134 196.435,315.305 195.944,314.700 195.686 C 314.095 195.428,313.600 195.033,313.600 194.809 C 313.600 194.584,313.330 194.400,313.000 194.400 C 312.670 194.400,312.400 194.229,312.400 194.021 C 312.400 193.812,311.950 193.156,311.400 192.562 C 310.850 191.969,310.400 191.313,310.400 191.105 C 310.400 190.897,310.040 190.269,309.600 189.709 C 308.809 188.703,308.800 188.086,308.800 132.800 C 308.800 77.514,308.809 76.897,309.600 75.891 C 310.040 75.331,310.400 74.679,310.400 74.440 C 310.400 74.202,310.760 73.782,311.200 73.507 C 311.640 73.232,312.000 72.811,312.000 72.571 C 312.000 72.330,312.720 71.555,313.600 70.848 L 315.200 69.562 315.179 63.081 C 315.160 57.074,315.112 56.666,314.530 57.500 C 314.185 57.995,313.654 58.400,313.351 58.400 C 313.048 58.400,312.800 58.566,312.800 58.768 C 312.800 59.249,309.249 62.800,308.768 62.800 C 308.566 62.800,308.400 62.979,308.400 63.198 C 308.400 63.720,301.324 70.800,300.802 70.800 C 300.581 70.800,300.400 70.972,300.400 71.183 C 300.400 71.683,288.883 83.200,288.383 83.200 C 288.172 83.200,288.000 83.371,288.000 83.581 C 288.000 84.077,284.077 88.000,283.581 88.000 C 283.371 88.000,283.200 88.180,283.200 88.401 C 283.200 88.622,280.770 91.208,277.800 94.149 C 271.913 99.978,272.065 99.702,273.162 102.592 C 277.476 113.966,277.372 138.499,272.967 148.714 C 272.655 149.436,272.400 150.295,272.400 150.622 C 272.400 151.342,269.381 157.649,268.103 159.600 C 267.598 160.370,267.011 161.270,266.798 161.600 C 265.166 164.132,264.004 165.756,262.800 167.188 C 261.457 168.785,251.605 178.800,251.376 178.800 C 251.315 178.800,250.544 179.475,249.662 180.300 C 248.780 181.125,247.206 182.520,246.164 183.400 C 245.122 184.280,244.074 185.186,243.835 185.414 C 243.596 185.642,242.320 186.728,241.000 187.828 C 232.641 194.790,228.390 201.632,228.408 208.092 C 228.418 211.290,229.706 215.684,231.041 217.070 C 231.458 217.503,232.263 218.385,232.829 219.029 C 234.935 221.424,242.374 228.104,244.587 229.588 C 245.089 229.924,246.828 231.313,248.450 232.674 C 250.073 234.034,251.974 235.564,252.676 236.074 C 254.852 237.653,259.379 241.443,261.386 243.366 C 262.439 244.375,263.425 245.200,263.577 245.200 C 263.999 245.200,274.586 255.981,275.950 257.800 C 276.610 258.680,277.386 259.673,277.675 260.007 C 278.408 260.853,283.434 268.469,283.742 269.200 C 283.881 269.530,284.176 270.070,284.398 270.400 C 284.619 270.730,284.980 271.450,285.199 272.000 C 285.419 272.550,285.772 273.270,285.985 273.600 C 286.727 274.749,288.000 277.961,288.000 278.684 C 288.000 279.084,288.360 280.084,288.800 280.904 C 289.240 281.725,289.600 283.021,289.600 283.785 C 289.600 284.548,289.915 286.033,290.300 287.086 C 290.901 288.729,291.000 290.501,291.000 299.600 C 291.000 308.839,290.910 310.399,290.300 311.749 C 289.915 312.601,289.594 313.951,289.586 314.749 C 289.579 315.547,289.225 316.920,288.800 317.800 C 288.375 318.680,288.021 319.861,288.014 320.424 C 288.006 320.986,287.736 321.796,287.413 322.224 C 287.090 322.651,286.820 323.258,286.813 323.574 C 286.806 323.889,286.449 324.879,286.021 325.774 C 285.592 326.668,285.053 327.850,284.822 328.400 C 284.591 328.950,284.221 329.670,284.001 330.000 C 283.780 330.330,283.415 331.050,283.190 331.600 C 282.965 332.150,282.345 333.320,281.811 334.200 C 281.278 335.080,280.671 336.167,280.462 336.616 C 280.254 337.065,279.795 337.673,279.442 337.965 C 279.089 338.258,278.800 338.711,278.800 338.971 C 278.800 339.955,273.035 347.334,269.429 350.968 C 267.185 353.229,261.099 358.400,260.682 358.400 C 260.582 358.400,259.805 359.037,258.954 359.817 C 258.104 360.596,257.001 361.335,256.504 361.460 C 256.007 361.585,255.600 361.817,255.600 361.976 C 255.600 362.336,251.836 364.800,251.287 364.800 C 251.066 364.800,250.788 365.053,250.670 365.362 C 250.551 365.672,249.904 366.045,249.232 366.193 C 248.559 366.341,247.913 366.617,247.796 366.807 C 247.678 366.997,246.281 367.797,244.691 368.585 C 243.101 369.373,241.530 370.167,241.200 370.350 C 240.870 370.532,239.745 371.068,238.700 371.541 C 237.655 372.013,236.035 372.749,235.100 373.176 C 234.165 373.602,232.320 374.344,231.000 374.825 C 229.680 375.305,228.134 375.939,227.563 376.234 C 226.993 376.529,225.733 376.892,224.763 377.040 C 223.794 377.188,222.818 377.451,222.595 377.625 C 222.372 377.799,221.292 378.144,220.195 378.392 C 219.098 378.641,217.300 379.101,216.200 379.415 C 201.167 383.703,165.517 384.721,146.200 381.412 C 139.946 380.341,131.723 378.283,131.064 377.624 C 130.831 377.391,130.264 377.200,129.805 377.200 C 129.345 377.200,128.263 376.840,127.400 376.400 C 126.537 375.960,125.574 375.600,125.259 375.600 C 124.945 375.600,123.858 375.223,122.844 374.762 C 121.830 374.301,120.280 373.605,119.400 373.217 C 116.537 371.953,115.810 371.612,115.200 371.246 C 114.870 371.048,114.150 370.679,113.600 370.427 C 112.429 369.890,111.906 369.574,108.300 367.228 C 106.815 366.262,105.600 365.320,105.600 365.135 C 105.600 364.951,105.412 364.800,105.182 364.800 C 104.722 364.800,100.398 361.306,98.759 359.609 C 98.187 359.016,97.422 358.417,97.059 358.278 C 96.697 358.139,96.400 357.854,96.400 357.645 C 96.400 357.436,95.725 356.536,94.900 355.645 C 94.075 354.754,93.220 353.791,93.000 353.504 C 92.780 353.218,91.748 351.880,90.706 350.533 C 89.664 349.185,88.627 347.659,88.401 347.141 C 88.176 346.623,87.540 345.480,86.987 344.600 C 86.435 343.720,85.887 342.730,85.771 342.400 C 85.654 342.070,85.228 341.080,84.825 340.200 C 83.718 337.786,82.400 333.479,82.400 332.280 C 82.400 331.695,82.085 330.448,81.700 329.508 C 81.118 328.088,81.000 326.521,81.000 320.200 C 81.000 313.879,81.118 312.312,81.700 310.892 C 82.085 309.952,82.397 308.692,82.394 308.092 C 82.387 306.806,83.772 302.098,84.846 299.756 C 85.261 298.852,85.600 297.839,85.600 297.505 C 85.600 297.171,85.858 296.683,86.174 296.421 C 86.490 296.159,86.871 295.388,87.021 294.707 C 87.320 293.342,88.427 291.156,90.213 288.400 C 90.855 287.410,91.594 286.204,91.856 285.719 C 92.353 284.801,92.579 284.499,94.089 282.735 C 94.590 282.150,95.270 281.282,95.600 280.806 C 96.324 279.764,101.265 274.673,103.177 273.000 C 105.100 271.318,110.143 267.725,112.200 266.572 C 112.640 266.326,113.630 265.738,114.400 265.266 C 115.170 264.794,116.385 264.102,117.100 263.730 C 117.815 263.357,118.400 262.919,118.400 262.758 C 118.400 262.596,118.938 262.345,119.595 262.201 C 120.253 262.057,120.891 261.776,121.014 261.577 C 121.343 261.046,129.496 257.200,130.294 257.200 C 130.537 257.200,131.245 256.932,131.868 256.605 C 134.181 255.391,136.651 254.481,138.400 254.199 C 139.390 254.040,140.380 253.766,140.600 253.592 C 141.065 253.222,144.697 252.170,148.351 251.348 C 149.754 251.032,151.194 250.618,151.551 250.427 C 151.908 250.237,153.280 249.950,154.600 249.790 C 155.920 249.630,157.304 249.342,157.675 249.149 C 158.046 248.957,159.756 248.612,161.475 248.384 C 163.194 248.156,165.860 247.706,167.400 247.385 C 168.940 247.063,172.180 246.608,174.600 246.373 C 180.383 245.811,186.702 245.232,190.300 244.935 C 193.762 244.648,193.935 244.238,191.852 241.273 C 191.110 240.218,190.378 238.960,190.225 238.477 C 190.071 237.995,189.800 237.600,189.622 237.600 C 189.443 237.600,189.060 237.015,188.771 236.300 C 188.482 235.585,188.141 234.910,188.013 234.800 C 187.554 234.405,185.600 230.314,185.600 229.747 C 185.600 229.429,185.240 228.462,184.800 227.600 C 183.588 225.224,183.588 209.966,184.800 207.704 C 185.240 206.884,185.600 205.543,185.600 204.726 L 185.600 203.240 176.100 203.068 C 163.381 202.836,159.904 202.326,149.000 199.088 C 147.900 198.761,146.460 198.204,145.800 197.849 C 145.140 197.495,144.369 197.204,144.086 197.202 C 143.455 197.199,137.642 194.153,136.769 193.368 C 136.421 193.055,135.954 192.800,135.731 192.800 C 133.901 192.800,116.800 177.429,116.800 175.785 C 116.800 175.485,116.571 175.096,116.290 174.920 C 116.010 174.744,115.425 174.078,114.990 173.440 C 113.126 170.705,112.766 170.137,112.172 169.000 C 111.827 168.340,111.112 167.080,110.582 166.200 C 109.402 164.239,108.800 162.907,108.800 162.254 C 108.800 161.982,108.638 161.589,108.441 161.380 C 108.073 160.991,106.630 157.377,105.415 153.800 C 105.041 152.700,104.494 150.450,104.200 148.800 C 103.905 147.150,103.472 145.049,103.237 144.132 C 103.002 143.215,102.763 139.391,102.705 135.636 L 102.600 128.807 68.644 128.703 C 37.593 128.609,34.652 128.544,34.271 127.940 C 33.923 127.388,42.260 118.874,85.291 75.840 L 136.727 24.400 240.264 24.405 C 297.209 24.408,344.193 24.516,344.672 24.645 M177.400 67.481 C 175.460 67.659,169.306 69.524,168.211 70.265 C 167.777 70.559,167.034 70.800,166.560 70.800 C 166.086 70.800,165.480 71.063,165.213 71.385 C 164.946 71.706,164.362 72.085,163.914 72.227 C 158.773 73.859,151.683 82.036,147.985 90.600 C 147.290 92.208,146.334 96.274,145.961 99.200 C 145.751 100.850,145.382 103.280,145.141 104.600 C 144.499 108.118,144.271 115.412,144.773 116.350 C 145.006 116.785,145.387 119.448,145.619 122.270 C 145.852 125.091,146.210 127.806,146.414 128.303 C 146.619 128.800,146.968 130.420,147.190 131.903 C 147.413 133.386,147.862 135.500,148.189 136.600 C 148.516 137.700,149.156 139.950,149.611 141.600 C 150.066 143.250,150.790 145.370,151.219 146.311 C 151.649 147.252,152.000 148.208,152.000 148.435 C 152.000 148.663,152.468 149.873,153.039 151.125 C 153.611 152.376,154.339 154.030,154.658 154.800 C 154.977 155.570,155.413 156.470,155.627 156.800 C 155.841 157.130,156.296 158.011,156.638 158.758 C 156.980 159.505,157.516 160.373,157.830 160.687 C 158.143 161.001,158.400 161.486,158.400 161.767 C 158.400 162.047,158.760 162.602,159.200 163.000 C 159.640 163.398,160.000 163.926,160.000 164.173 C 160.000 164.420,160.315 164.904,160.700 165.249 C 161.085 165.593,161.670 166.284,162.000 166.784 C 164.405 170.423,168.502 174.825,172.104 177.636 C 173.477 178.708,174.870 179.822,175.200 180.111 C 180.958 185.162,195.793 187.975,204.600 185.686 C 211.519 183.888,222.184 178.583,222.964 176.551 C 223.080 176.248,223.406 175.996,223.687 175.991 C 223.969 175.985,224.740 175.236,225.400 174.325 C 226.060 173.413,227.185 171.886,227.900 170.931 C 228.615 169.975,229.200 169.055,229.200 168.886 C 229.200 168.716,229.512 168.133,229.894 167.589 C 231.231 165.684,232.534 161.253,233.638 154.855 C 234.217 151.498,233.918 131.873,233.263 130.200 C 233.004 129.540,232.625 127.830,232.419 126.400 C 232.044 123.781,231.073 119.620,230.320 117.400 C 230.095 116.740,229.730 115.480,229.507 114.600 C 229.284 113.720,228.875 112.550,228.597 112.000 C 228.320 111.450,227.963 110.396,227.805 109.658 C 227.547 108.451,227.078 107.226,225.412 103.400 C 225.124 102.740,224.781 101.840,224.649 101.400 C 224.517 100.960,223.876 99.610,223.225 98.400 C 222.574 97.190,221.490 95.155,220.815 93.877 C 220.141 92.600,219.409 91.340,219.189 91.077 C 218.367 90.097,216.800 87.551,216.800 87.196 C 216.800 86.994,216.440 86.635,216.000 86.400 C 215.560 86.165,215.200 85.792,215.200 85.572 C 215.200 83.932,199.883 70.806,197.959 70.797 C 197.651 70.796,196.860 70.437,196.200 70.000 C 195.540 69.563,194.640 69.203,194.200 69.200 C 193.760 69.197,192.860 68.913,192.200 68.569 C 190.136 67.492,183.001 66.968,177.400 67.481 M191.400 261.556 C 188.540 261.690,186.020 261.918,185.800 262.061 C 185.580 262.205,183.240 262.542,180.600 262.809 C 177.960 263.077,175.606 263.450,175.369 263.639 C 175.132 263.829,173.602 264.163,171.969 264.384 C 170.336 264.604,168.100 265.051,167.000 265.377 C 165.900 265.704,163.650 266.355,162.000 266.825 C 160.350 267.295,158.280 268.003,157.400 268.399 C 156.520 268.794,154.810 269.528,153.600 270.030 C 149.036 271.924,146.238 273.377,143.243 275.408 C 142.276 276.064,141.121 276.812,140.675 277.071 C 140.229 277.329,139.706 277.824,139.512 278.171 C 139.319 278.517,138.989 278.800,138.780 278.800 C 138.382 278.800,130.892 286.214,130.200 287.294 C 129.980 287.637,129.215 288.756,128.500 289.779 C 127.785 290.803,127.200 291.738,127.200 291.858 C 127.200 291.978,126.862 292.554,126.450 293.138 C 126.037 293.722,125.570 294.797,125.412 295.527 C 125.254 296.257,124.873 297.337,124.565 297.927 C 124.257 298.517,124.004 299.466,124.002 300.036 C 124.001 300.606,123.732 301.956,123.404 303.036 C 121.103 310.622,124.517 327.978,129.498 334.021 C 129.761 334.340,130.810 335.680,131.831 337.000 C 136.092 342.513,145.806 350.225,151.781 352.840 C 152.232 353.037,152.870 353.366,153.200 353.571 C 154.085 354.120,157.249 355.483,158.400 355.810 C 158.950 355.967,159.670 356.321,160.000 356.598 C 160.330 356.875,161.498 357.232,162.595 357.390 C 163.692 357.548,165.078 357.930,165.675 358.239 C 166.272 358.547,167.444 358.808,168.280 358.818 C 169.116 358.827,170.520 359.112,171.400 359.450 C 172.280 359.788,174.440 360.210,176.200 360.387 C 177.960 360.564,181.988 361.017,185.152 361.395 C 191.351 362.135,204.198 362.047,209.000 361.231 C 210.320 361.006,212.840 360.711,214.600 360.575 C 216.360 360.439,218.430 360.044,219.200 359.697 C 219.970 359.349,221.500 358.979,222.600 358.874 C 223.700 358.769,224.960 358.452,225.400 358.171 C 225.840 357.889,226.869 357.537,227.686 357.388 C 228.503 357.238,229.370 356.877,229.613 356.584 C 229.856 356.291,230.628 355.930,231.328 355.781 C 232.027 355.633,232.870 355.291,233.200 355.023 C 233.530 354.754,234.790 354.031,236.000 353.416 C 237.210 352.800,238.830 351.816,239.600 351.229 C 240.370 350.642,241.488 349.855,242.085 349.481 C 243.513 348.586,249.128 342.867,250.400 341.011 C 250.950 340.209,251.601 339.330,251.847 339.058 C 252.479 338.359,254.400 334.691,254.400 334.183 C 254.400 333.950,254.620 333.540,254.889 333.271 C 255.483 332.677,256.670 328.796,257.417 325.000 C 258.555 319.218,257.974 309.171,256.224 304.400 C 254.525 299.766,249.793 291.513,248.566 291.042 C 248.255 290.923,248.000 290.640,248.000 290.414 C 248.000 289.904,241.319 283.200,240.810 283.200 C 240.607 283.200,240.296 282.972,240.120 282.693 C 239.944 282.414,238.270 280.948,236.400 279.436 C 234.530 277.924,232.800 276.442,232.556 276.143 C 232.312 275.844,231.985 275.600,231.829 275.600 C 231.569 275.600,227.797 272.723,226.400 271.459 C 226.070 271.160,224.180 269.720,222.200 268.259 C 220.220 266.798,218.420 265.467,218.200 265.301 C 217.980 265.136,216.630 264.192,215.200 263.203 L 212.600 261.407 204.600 261.359 C 200.200 261.333,194.260 261.421,191.400 261.556 " stroke="none" fill="#75a3f9" fill-rule="evenodd"></path><path id="path2" d="M85.291 75.840 C 42.260 118.874,33.923 127.388,34.271 127.940 C 34.652 128.544,37.593 128.609,68.644 128.703 L 102.600 128.807 102.705 135.636 C 102.763 139.391,103.002 143.215,103.237 144.132 C 103.472 145.049,103.905 147.150,104.200 148.800 C 104.494 150.450,105.041 152.700,105.415 153.800 C 106.630 157.377,108.073 160.991,108.441 161.380 C 108.638 161.589,108.800 161.982,108.800 162.254 C 108.800 162.907,109.402 164.239,110.582 166.200 C 111.112 167.080,111.827 168.340,112.172 169.000 C 112.766 170.137,113.126 170.705,114.990 173.440 C 115.425 174.078,116.010 174.744,116.290 174.920 C 116.571 175.096,116.800 175.485,116.800 175.785 C 116.800 177.429,133.901 192.800,135.731 192.800 C 135.954 192.800,136.421 193.055,136.769 193.368 C 137.642 194.153,143.455 197.199,144.086 197.202 C 144.369 197.204,145.140 197.495,145.800 197.849 C 146.460 198.204,147.900 198.761,149.000 199.088 C 159.904 202.326,163.381 202.836,176.100 203.068 L 185.600 203.240 185.600 204.726 C 185.600 205.543,185.240 206.884,184.800 207.704 C 183.588 209.966,183.588 225.224,184.800 227.600 C 185.240 228.462,185.600 229.429,185.600 229.747 C 185.600 230.314,187.554 234.405,188.013 234.800 C 188.141 234.910,188.482 235.585,188.771 236.300 C 189.060 237.015,189.443 237.600,189.622 237.600 C 189.800 237.600,190.071 237.995,190.225 238.477 C 190.378 238.960,191.110 240.218,191.852 241.273 C 193.935 244.238,193.762 244.648,190.300 244.935 C 186.702 245.232,180.383 245.811,174.600 246.373 C 172.180 246.608,168.940 247.063,167.400 247.385 C 165.860 247.706,163.194 248.156,161.475 248.384 C 159.756 248.612,158.046 248.957,157.675 249.149 C 157.304 249.342,155.920 249.630,154.600 249.790 C 153.280 249.950,151.908 250.237,151.551 250.427 C 151.194 250.618,149.754 251.032,148.351 251.348 C 144.697 252.170,141.065 253.222,140.600 253.592 C 140.380 253.766,139.390 254.040,138.400 254.199 C 136.651 254.481,134.181 255.391,131.868 256.605 C 131.245 256.932,130.537 257.200,130.294 257.200 C 129.496 257.200,121.343 261.046,121.014 261.577 C 120.891 261.776,120.253 262.057,119.595 262.201 C 118.938 262.345,118.400 262.596,118.400 262.758 C 118.400 262.919,117.815 263.357,117.100 263.730 C 116.385 264.102,115.170 264.794,114.400 265.266 C 113.630 265.738,112.640 266.326,112.200 266.572 C 110.143 267.725,105.100 271.318,103.177 273.000 C 101.265 274.673,96.324 279.764,95.600 280.806 C 95.270 281.282,94.590 282.150,94.089 282.735 C 92.579 284.499,92.353 284.801,91.856 285.719 C 91.594 286.204,90.855 287.410,90.213 288.400 C 88.427 291.156,87.320 293.342,87.021 294.707 C 86.871 295.388,86.490 296.159,86.174 296.421 C 85.858 296.683,85.600 297.171,85.600 297.505 C 85.600 297.839,85.261 298.852,84.846 299.756 C 83.772 302.098,82.387 306.806,82.394 308.092 C 82.397 308.692,82.085 309.952,81.700 310.892 C 81.118 312.312,81.000 313.879,81.000 320.200 C 81.000 326.521,81.118 328.088,81.700 329.508 C 82.085 330.448,82.400 331.695,82.400 332.280 C 82.400 333.479,83.718 337.786,84.825 340.200 C 85.228 341.080,85.654 342.070,85.771 342.400 C 85.887 342.730,86.435 343.720,86.987 344.600 C 87.540 345.480,88.176 346.623,88.401 347.141 C 88.627 347.659,89.664 349.185,90.706 350.533 C 91.748 351.880,92.780 353.218,93.000 353.504 C 93.220 353.791,94.075 354.754,94.900 355.645 C 95.725 356.536,96.400 357.436,96.400 357.645 C 96.400 357.854,96.697 358.139,97.059 358.278 C 97.422 358.417,98.187 359.016,98.759 359.609 C 100.398 361.306,104.722 364.800,105.182 364.800 C 105.412 364.800,105.600 364.951,105.600 365.135 C 105.600 365.320,106.815 366.262,108.300 367.228 C 111.906 369.574,112.429 369.890,113.600 370.427 C 114.150 370.679,114.870 371.048,115.200 371.246 C 115.810 371.612,116.537 371.953,119.400 373.217 C 120.280 373.605,121.830 374.301,122.844 374.762 C 123.858 375.223,124.945 375.600,125.259 375.600 C 125.574 375.600,126.537 375.960,127.400 376.400 C 128.263 376.840,129.345 377.200,129.805 377.200 C 130.264 377.200,130.831 377.391,131.064 377.624 C 131.723 378.283,139.946 380.341,146.200 381.412 C 165.517 384.721,201.167 383.703,216.200 379.415 C 217.300 379.101,219.098 378.641,220.195 378.392 C 221.292 378.144,222.372 377.799,222.595 377.625 C 222.818 377.451,223.794 377.188,224.763 377.040 C 225.733 376.892,226.993 376.529,227.563 376.234 C 228.134 375.939,229.680 375.305,231.000 374.825 C 232.320 374.344,234.165 373.602,235.100 373.176 C 236.035 372.749,237.655 372.013,238.700 371.541 C 239.745 371.068,240.870 370.532,241.200 370.350 C 241.530 370.167,243.101 369.373,244.691 368.585 C 246.281 367.797,247.678 366.997,247.796 366.807 C 247.913 366.617,248.559 366.341,249.232 366.193 C 249.904 366.045,250.551 365.672,250.670 365.362 C 250.788 365.053,251.066 364.800,251.287 364.800 C 251.836 364.800,255.600 362.336,255.600 361.976 C 255.600 361.817,256.007 361.585,256.504 361.460 C 257.001 361.335,258.104 360.596,258.954 359.817 C 259.805 359.037,260.582 358.400,260.682 358.400 C 261.099 358.400,267.185 353.229,269.429 350.968 C 273.035 347.334,278.800 339.955,278.800 338.971 C 278.800 338.711,279.089 338.258,279.442 337.965 C 279.795 337.673,280.254 337.065,280.462 336.616 C 280.671 336.167,281.278 335.080,281.811 334.200 C 282.345 333.320,282.965 332.150,283.190 331.600 C 283.415 331.050,283.780 330.330,284.001 330.000 C 284.221 329.670,284.591 328.950,284.822 328.400 C 285.053 327.850,285.592 326.668,286.021 325.774 C 286.449 324.879,286.806 323.889,286.813 323.574 C 286.820 323.258,287.090 322.651,287.413 322.224 C 287.736 321.796,288.006 320.986,288.014 320.424 C 288.021 319.861,288.375 318.680,288.800 317.800 C 289.225 316.920,289.579 315.547,289.586 314.749 C 289.594 313.951,289.915 312.601,290.300 311.749 C 290.910 310.399,291.000 308.839,291.000 299.600 C 291.000 290.501,290.901 288.729,290.300 287.086 C 289.915 286.033,289.600 284.548,289.600 283.785 C 289.600 283.021,289.240 281.725,288.800 280.904 C 288.360 280.084,288.000 279.084,288.000 278.684 C 288.000 277.961,286.727 274.749,285.985 273.600 C 285.772 273.270,285.419 272.550,285.199 272.000 C 284.980 271.450,284.619 270.730,284.398 270.400 C 284.176 270.070,283.881 269.530,283.742 269.200 C 283.434 268.469,278.408 260.853,277.675 260.007 C 277.386 259.673,276.610 258.680,275.950 257.800 C 274.586 255.981,263.999 245.200,263.577 245.200 C 263.425 245.200,262.439 244.375,261.386 243.366 C 259.379 241.443,254.852 237.653,252.676 236.074 C 251.974 235.564,250.073 234.034,248.450 232.674 C 246.828 231.313,245.089 229.924,244.587 229.588 C 242.374 228.104,234.935 221.424,232.829 219.029 C 232.263 218.385,231.458 217.503,231.041 217.070 C 226.321 212.169,227.928 201.775,234.588 194.126 C 236.397 192.048,238.985 189.506,241.000 187.828 C 242.320 186.728,243.596 185.642,243.835 185.414 C 244.074 185.186,245.122 184.280,246.164 183.400 C 247.206 182.520,248.780 181.125,249.662 180.300 C 250.544 179.475,251.315 178.800,251.376 178.800 C 251.605 178.800,261.457 168.785,262.800 167.188 C 264.004 165.756,265.166 164.132,266.798 161.600 C 267.011 161.270,267.598 160.370,268.103 159.600 C 269.381 157.649,272.400 151.342,272.400 150.622 C 272.400 150.295,272.655 149.436,272.967 148.714 C 277.372 138.499,277.476 113.966,273.162 102.592 C 272.065 99.702,271.913 99.978,277.800 94.149 C 280.770 91.208,283.200 88.622,283.200 88.401 C 283.200 88.180,283.371 88.000,283.581 88.000 C 284.077 88.000,288.000 84.077,288.000 83.581 C 288.000 83.371,288.172 83.200,288.383 83.200 C 288.883 83.200,300.400 71.683,300.400 71.183 C 300.400 70.972,300.581 70.800,300.802 70.800 C 301.324 70.800,308.400 63.720,308.400 63.198 C 308.400 62.979,308.566 62.800,308.768 62.800 C 309.249 62.800,312.800 59.249,312.800 58.768 C 312.800 58.566,313.048 58.400,313.351 58.400 C 313.654 58.400,314.185 57.995,314.530 57.500 C 315.112 56.666,315.160 57.074,315.179 63.081 L 315.200 69.562 313.600 70.848 C 312.720 71.555,312.000 72.330,312.000 72.571 C 312.000 72.811,311.640 73.232,311.200 73.507 C 310.760 73.782,310.400 74.202,310.400 74.440 C 310.400 74.679,310.040 75.331,309.600 75.891 C 308.809 76.897,308.800 77.514,308.800 132.800 C 308.800 188.086,308.809 188.703,309.600 189.709 C 310.040 190.269,310.400 190.897,310.400 191.105 C 310.400 191.313,310.850 191.969,311.400 192.562 C 311.950 193.156,312.400 193.812,312.400 194.021 C 312.400 194.229,312.670 194.400,313.000 194.400 C 313.330 194.400,313.600 194.584,313.600 194.809 C 313.600 195.033,314.095 195.428,314.700 195.686 C 315.305 195.944,316.134 196.435,316.542 196.777 C 317.687 197.738,326.381 197.676,327.357 196.700 C 327.742 196.315,328.304 196.000,328.606 196.000 C 328.908 196.000,329.390 195.673,329.677 195.274 C 329.965 194.874,330.491 194.439,330.847 194.306 C 331.203 194.174,332.224 192.949,333.115 191.585 C 335.345 188.173,335.269 190.508,335.125 129.790 L 335.000 76.980 334.100 75.836 C 333.605 75.207,333.200 74.486,333.200 74.235 C 333.200 73.984,332.885 73.480,332.500 73.117 C 332.115 72.754,331.577 72.219,331.305 71.928 C 330.050 70.590,329.298 70.017,328.289 69.634 L 327.200 69.220 327.200 56.934 L 327.200 44.647 330.200 41.762 C 331.850 40.175,333.200 38.679,333.200 38.438 C 333.200 38.197,333.371 38.000,333.581 38.000 C 334.077 38.000,338.000 34.077,338.000 33.581 C 338.000 33.371,338.191 33.200,338.424 33.200 C 339.152 33.200,345.956 25.950,345.744 25.399 C 345.371 24.426,343.771 24.411,240.264 24.405 L 136.727 24.400 85.291 75.840 M344.528 25.300 C 345.132 25.743,344.163 26.846,336.005 34.997 L 326.800 44.193 326.800 56.829 L 326.800 69.465 328.749 70.728 C 330.970 72.167,332.274 73.732,333.645 76.601 L 334.600 78.600 334.600 132.800 C 334.600 191.335,334.716 187.689,332.755 190.800 C 332.547 191.130,332.088 191.854,331.734 192.409 C 327.010 199.814,314.437 198.011,310.320 189.338 L 309.400 187.400 309.400 132.800 C 309.400 80.650,309.433 78.131,310.134 76.667 C 311.274 74.288,312.736 72.298,313.910 71.528 C 314.499 71.142,315.107 70.505,315.262 70.113 C 315.648 69.136,315.663 57.118,315.279 56.514 C 315.073 56.190,307.695 63.303,293.227 77.773 L 271.485 99.518 271.754 101.202 C 271.902 102.128,272.368 103.867,272.790 105.067 C 275.209 111.949,276.317 129.195,274.830 136.800 C 274.550 138.230,274.191 140.210,274.031 141.200 C 272.291 151.989,265.082 164.160,254.175 174.726 C 249.521 179.233,247.288 181.206,243.031 184.571 C 229.836 195.001,224.945 204.563,228.154 213.655 C 229.819 218.373,233.440 222.087,246.608 232.590 C 265.162 247.387,274.976 257.009,280.888 266.200 C 283.111 269.655,287.578 278.857,287.618 280.060 C 287.627 280.357,287.900 281.320,288.224 282.200 C 289.948 286.884,290.985 301.975,289.983 307.800 C 288.577 315.975,287.231 320.890,285.151 325.444 C 284.738 326.348,284.400 327.271,284.400 327.495 C 284.400 327.719,284.148 328.111,283.839 328.367 C 283.531 328.623,283.162 329.295,283.020 329.861 C 282.462 332.085,276.766 340.836,272.792 345.574 C 261.931 358.526,242.934 370.471,224.400 376.002 C 222.750 376.495,220.500 377.167,219.400 377.496 C 216.091 378.485,209.568 379.886,206.800 380.202 C 205.370 380.365,203.758 380.666,203.218 380.871 C 199.619 382.233,177.044 383.197,165.600 382.477 C 146.833 381.295,133.535 378.441,121.400 372.988 C 120.300 372.494,118.500 371.687,117.400 371.194 C 101.639 364.135,88.575 349.880,83.862 334.600 C 80.570 323.924,81.986 305.830,86.781 297.309 C 87.000 296.919,87.647 295.451,88.218 294.047 C 91.163 286.799,98.107 278.353,106.400 271.934 C 109.618 269.443,115.292 265.600,115.752 265.600 C 115.869 265.600,116.605 265.166,117.387 264.635 C 130.331 255.851,157.413 248.813,187.600 246.388 C 195.211 245.777,196.066 245.165,193.691 242.031 C 192.099 239.929,187.788 232.700,187.211 231.166 C 184.887 224.979,184.800 224.491,184.800 217.643 C 184.800 211.361,184.858 210.878,186.053 207.156 C 187.835 201.608,188.474 202.000,177.641 202.000 C 157.594 202.000,145.805 198.540,131.000 188.312 C 114.300 176.775,101.395 149.484,103.779 130.749 C 104.099 128.237,106.681 128.412,69.176 128.405 C 43.394 128.401,36.004 128.290,35.472 127.900 C 34.872 127.459,40.824 121.368,86.099 76.100 L 137.407 24.800 240.627 24.800 C 322.573 24.800,343.988 24.903,344.528 25.300 M175.800 66.824 C 149.946 72.189,138.760 94.998,145.391 128.830 C 148.873 146.592,154.101 158.716,163.122 169.943 C 166.305 173.905,170.257 177.990,172.000 179.122 C 172.550 179.479,173.737 180.361,174.638 181.083 C 182.558 187.426,197.836 189.634,208.288 185.947 C 232.966 177.241,240.446 157.336,232.546 121.400 C 231.881 118.375,227.705 105.256,227.199 104.600 C 227.029 104.380,226.394 102.940,225.789 101.400 C 224.652 98.512,219.931 90.161,218.292 88.142 C 217.783 87.514,217.025 86.460,216.609 85.800 C 215.482 84.013,208.176 76.596,205.200 74.217 C 196.742 67.457,185.894 64.729,175.800 66.824 M187.800 67.574 C 189.560 67.777,191.540 68.225,192.200 68.569 C 192.860 68.913,193.760 69.197,194.200 69.200 C 194.640 69.203,195.540 69.563,196.200 70.000 C 196.860 70.437,197.651 70.796,197.959 70.797 C 199.883 70.806,215.200 83.932,215.200 85.572 C 215.200 85.792,215.560 86.165,216.000 86.400 C 216.440 86.635,216.800 86.994,216.800 87.196 C 216.800 87.551,218.367 90.097,219.189 91.077 C 219.409 91.340,220.141 92.600,220.815 93.877 C 221.490 95.155,222.574 97.190,223.225 98.400 C 223.876 99.610,224.517 100.960,224.649 101.400 C 224.781 101.840,225.124 102.740,225.412 103.400 C 227.078 107.226,227.547 108.451,227.805 109.658 C 227.963 110.396,228.320 111.450,228.597 112.000 C 228.875 112.550,229.284 113.720,229.507 114.600 C 229.730 115.480,230.095 116.740,230.320 117.400 C 231.073 119.620,232.044 123.781,232.419 126.400 C 232.625 127.830,233.004 129.540,233.263 130.200 C 233.918 131.873,234.217 151.498,233.638 154.855 C 232.534 161.253,231.231 165.684,229.894 167.589 C 229.512 168.133,229.200 168.716,229.200 168.886 C 229.200 169.055,228.615 169.975,227.900 170.931 C 227.185 171.886,226.060 173.413,225.400 174.325 C 224.740 175.236,223.969 175.985,223.687 175.991 C 223.406 175.996,223.080 176.248,222.964 176.551 C 222.184 178.583,211.519 183.888,204.600 185.686 C 195.793 187.975,180.958 185.162,175.200 180.111 C 174.870 179.822,173.477 178.708,172.104 177.636 C 168.502 174.825,164.405 170.423,162.000 166.784 C 161.670 166.284,161.085 165.593,160.700 165.249 C 160.315 164.904,160.000 164.420,160.000 164.173 C 160.000 163.926,159.640 163.398,159.200 163.000 C 158.760 162.602,158.400 162.047,158.400 161.767 C 158.400 161.486,158.143 161.001,157.830 160.687 C 157.516 160.373,156.980 159.505,156.638 158.758 C 156.296 158.011,155.841 157.130,155.627 156.800 C 155.413 156.470,154.977 155.570,154.658 154.800 C 154.339 154.030,153.611 152.376,153.039 151.125 C 152.468 149.873,152.000 148.663,152.000 148.435 C 152.000 148.208,151.649 147.252,151.219 146.311 C 150.790 145.370,150.066 143.250,149.611 141.600 C 149.156 139.950,148.516 137.700,148.189 136.600 C 147.862 135.500,147.413 133.386,147.190 131.903 C 146.968 130.420,146.619 128.800,146.414 128.303 C 146.210 127.806,145.852 125.091,145.619 122.270 C 145.387 119.448,145.006 116.785,144.773 116.350 C 144.271 115.412,144.499 108.118,145.141 104.600 C 145.382 103.280,145.751 100.850,145.961 99.200 C 146.334 96.274,147.290 92.208,147.985 90.600 C 151.683 82.036,158.773 73.859,163.914 72.227 C 164.362 72.085,164.946 71.706,165.213 71.385 C 165.480 71.063,166.086 70.800,166.560 70.800 C 167.034 70.800,167.777 70.559,168.211 70.265 C 171.628 67.951,180.491 66.733,187.800 67.574 M196.400 260.001 C 195.410 260.188,193.388 260.354,191.907 260.370 C 189.068 260.402,187.679 260.579,177.400 262.219 C 151.354 266.376,130.538 279.128,124.867 294.400 C 122.106 301.835,122.222 301.134,122.211 310.400 C 122.199 319.484,122.193 319.444,124.443 325.408 C 124.859 326.512,125.200 327.621,125.200 327.872 C 125.200 328.423,128.042 333.510,129.724 335.969 C 132.759 340.407,139.845 346.854,145.634 350.445 C 148.838 352.432,155.863 355.998,156.582 356.002 C 156.812 356.004,157.540 356.293,158.200 356.644 C 160.766 358.011,171.952 360.734,180.200 362.000 C 187.686 363.149,209.189 362.809,215.200 361.447 C 216.630 361.123,218.610 360.676,219.600 360.454 C 244.757 354.811,258.982 339.043,258.982 316.800 C 258.982 304.693,253.329 292.350,244.146 284.409 C 243.516 283.864,241.812 282.424,240.361 281.209 C 238.909 279.994,237.109 278.488,236.361 277.861 C 231.017 273.390,215.593 262.038,213.011 260.676 C 211.229 259.736,200.182 259.288,196.400 260.001 M215.200 263.203 C 216.630 264.192,217.980 265.136,218.200 265.301 C 218.420 265.467,220.220 266.798,222.200 268.259 C 224.180 269.720,226.070 271.160,226.400 271.459 C 227.797 272.723,231.569 275.600,231.829 275.600 C 231.985 275.600,232.312 275.844,232.556 276.143 C 232.800 276.442,234.530 277.924,236.400 279.436 C 238.270 280.948,239.944 282.414,240.120 282.693 C 240.296 282.972,240.607 283.200,240.810 283.200 C 241.319 283.200,248.000 289.904,248.000 290.414 C 248.000 290.640,248.255 290.923,248.566 291.042 C 249.793 291.513,254.525 299.766,256.224 304.400 C 257.974 309.171,258.555 319.218,257.417 325.000 C 256.670 328.796,255.483 332.677,254.889 333.271 C 254.620 333.540,254.400 333.950,254.400 334.183 C 254.400 334.691,252.479 338.359,251.847 339.058 C 251.601 339.330,250.950 340.209,250.400 341.011 C 249.128 342.867,243.513 348.586,242.085 349.481 C 241.488 349.855,240.370 350.642,239.600 351.229 C 238.830 351.816,237.210 352.800,236.000 353.416 C 234.790 354.031,233.530 354.754,233.200 355.023 C 232.870 355.291,232.027 355.633,231.328 355.781 C 230.628 355.930,229.856 356.291,229.613 356.584 C 229.370 356.877,228.503 357.238,227.686 357.388 C 226.869 357.537,225.840 357.889,225.400 358.171 C 224.960 358.452,223.700 358.769,222.600 358.874 C 221.500 358.979,219.970 359.349,219.200 359.697 C 218.430 360.044,216.360 360.439,214.600 360.575 C 212.840 360.711,210.320 361.006,209.000 361.231 C 204.198 362.047,191.351 362.135,185.152 361.395 C 181.988 361.017,177.960 360.564,176.200 360.387 C 174.440 360.210,172.280 359.788,171.400 359.450 C 170.520 359.112,169.116 358.827,168.280 358.818 C 167.444 358.808,166.272 358.547,165.675 358.239 C 165.078 357.930,163.692 357.548,162.595 357.390 C 161.498 357.232,160.330 356.875,160.000 356.598 C 159.670 356.321,158.950 355.967,158.400 355.810 C 157.249 355.483,154.085 354.120,153.200 353.571 C 152.870 353.366,152.232 353.037,151.781 352.840 C 145.806 350.225,136.092 342.513,131.831 337.000 C 130.810 335.680,129.761 334.340,129.498 334.021 C 124.517 327.978,121.103 310.622,123.404 303.036 C 123.732 301.956,124.001 300.606,124.002 300.036 C 124.004 299.466,124.257 298.517,124.565 297.927 C 124.873 297.337,125.254 296.257,125.412 295.527 C 125.570 294.797,126.037 293.722,126.450 293.138 C 126.862 292.554,127.200 291.978,127.200 291.858 C 127.200 291.738,127.785 290.803,128.500 289.779 C 129.215 288.756,129.980 287.637,130.200 287.294 C 130.892 286.214,138.382 278.800,138.780 278.800 C 138.989 278.800,139.319 278.517,139.512 278.171 C 139.706 277.824,140.229 277.329,140.675 277.071 C 141.121 276.812,142.276 276.064,143.243 275.408 C 146.238 273.377,149.036 271.924,153.600 270.030 C 154.810 269.528,156.520 268.794,157.400 268.399 C 158.280 268.003,160.350 267.295,162.000 266.825 C 163.650 266.355,165.900 265.704,167.000 265.377 C 168.100 265.051,170.336 264.604,171.969 264.384 C 173.602 264.163,175.132 263.829,175.369 263.639 C 175.606 263.450,177.960 263.077,180.600 262.809 C 183.240 262.542,185.580 262.205,185.800 262.061 C 186.421 261.655,195.771 261.306,204.600 261.359 L 212.600 261.407 215.200 263.203 " stroke="none" fill="#8eb4fa" fill-rule="evenodd"></path><path id="path3" d="M86.099 76.100 C 40.824 121.368,34.872 127.459,35.472 127.900 C 36.004 128.290,43.394 128.401,69.176 128.405 C 106.681 128.412,104.099 128.237,103.779 130.749 C 101.395 149.484,114.300 176.775,131.000 188.312 C 145.805 198.540,157.594 202.000,177.641 202.000 C 188.474 202.000,187.835 201.608,186.053 207.156 C 184.858 210.878,184.800 211.361,184.800 217.643 C 184.800 224.491,184.887 224.979,187.211 231.166 C 187.788 232.700,192.099 239.929,193.691 242.031 C 196.066 245.165,195.211 245.777,187.600 246.388 C 165.008 248.203,146.188 252.036,131.200 257.876 C 126.456 259.724,119.886 262.939,117.387 264.635 C 116.605 265.166,115.869 265.600,115.752 265.600 C 115.292 265.600,109.618 269.443,106.400 271.934 C 98.107 278.353,91.163 286.799,88.218 294.047 C 87.647 295.451,87.000 296.919,86.781 297.309 C 81.986 305.830,80.570 323.924,83.862 334.600 C 88.575 349.880,101.639 364.135,117.400 371.194 C 118.500 371.687,120.300 372.494,121.400 372.988 C 133.535 378.441,146.833 381.295,165.600 382.477 C 177.044 383.197,199.619 382.233,203.218 380.871 C 203.758 380.666,205.370 380.365,206.800 380.202 C 209.568 379.886,216.091 378.485,219.400 377.496 C 220.500 377.167,222.750 376.495,224.400 376.002 C 242.934 370.471,261.931 358.526,272.792 345.574 C 276.766 340.836,282.462 332.085,283.020 329.861 C 283.162 329.295,283.531 328.623,283.839 328.367 C 284.148 328.111,284.400 327.719,284.400 327.495 C 284.400 327.271,284.738 326.348,285.151 325.444 C 287.231 320.890,288.577 315.975,289.983 307.800 C 290.985 301.975,289.948 286.884,288.224 282.200 C 287.900 281.320,287.627 280.357,287.618 280.060 C 287.578 278.857,283.111 269.655,280.888 266.200 C 274.976 257.009,265.162 247.387,246.608 232.590 C 233.440 222.087,229.819 218.373,228.154 213.655 C 224.945 204.563,229.836 195.001,243.031 184.571 C 254.793 175.274,262.995 166.334,267.969 157.390 C 270.273 153.246,273.461 144.732,274.031 141.200 C 274.191 140.210,274.550 138.230,274.830 136.800 C 276.317 129.195,275.209 111.949,272.790 105.067 C 272.368 103.867,271.902 102.128,271.754 101.202 L 271.485 99.518 293.227 77.773 C 307.695 63.303,315.073 56.190,315.279 56.514 C 315.663 57.118,315.648 69.136,315.262 70.113 C 315.107 70.505,314.499 71.142,313.910 71.528 C 312.736 72.298,311.274 74.288,310.134 76.667 C 309.433 78.131,309.400 80.650,309.400 132.800 L 309.400 187.400 310.320 189.338 C 314.437 198.011,327.010 199.814,331.734 192.409 C 334.895 187.453,334.600 193.588,334.600 132.800 L 334.600 78.600 333.645 76.601 C 332.274 73.732,330.970 72.167,328.749 70.728 L 326.800 69.465 326.800 56.829 L 326.800 44.193 336.005 34.997 C 344.163 26.846,345.132 25.743,344.528 25.300 C 343.988 24.903,322.573 24.800,240.627 24.800 L 137.407 24.800 86.099 76.100 M343.763 25.540 C 343.878 25.727,340.019 29.847,335.186 34.697 L 326.400 43.514 326.400 56.689 L 326.400 69.865 328.417 71.172 C 329.526 71.891,330.736 72.956,331.107 73.539 C 331.478 74.123,331.918 74.699,332.085 74.820 C 334.008 76.215,334.001 75.995,333.987 132.963 C 333.973 191.300,334.093 188.227,331.693 191.428 C 325.566 199.598,313.866 197.524,310.453 187.662 L 309.600 185.197 309.600 132.800 L 309.600 80.403 310.451 77.944 C 311.489 74.943,312.836 72.892,314.388 71.949 C 315.921 71.016,316.088 69.975,315.929 62.300 C 315.841 58.006,315.644 55.882,315.304 55.543 C 314.723 54.963,271.525 97.893,270.818 99.753 C 270.524 100.527,270.563 101.224,270.963 102.309 C 275.377 114.292,276.019 133.033,272.396 144.200 C 271.968 145.520,271.239 147.770,270.777 149.200 C 267.714 158.670,257.740 171.548,246.391 180.687 C 233.172 191.331,229.672 195.263,227.229 202.213 C 223.844 211.846,227.922 219.358,242.630 230.583 C 247.047 233.954,251.009 237.117,255.167 240.592 C 280.790 262.007,289.600 277.053,289.600 299.400 C 289.600 323.673,274.114 349.832,252.414 362.216 C 252.013 362.444,251.441 362.832,251.143 363.078 C 248.873 364.949,229.611 373.702,224.846 375.029 C 223.611 375.372,221.340 376.018,219.800 376.463 C 203.643 381.134,184.803 382.883,163.800 381.661 C 159.840 381.431,155.430 381.068,154.000 380.855 C 144.548 379.447,142.583 379.113,142.025 378.821 C 141.681 378.640,140.591 378.359,139.602 378.195 C 136.103 377.615,125.511 373.872,118.311 370.671 C 89.623 357.919,76.477 330.111,85.871 302.047 C 86.414 300.423,87.009 298.803,87.192 298.447 C 87.375 298.091,88.016 296.630,88.617 295.200 C 95.160 279.629,111.841 265.990,134.600 257.602 C 141.156 255.186,158.251 250.890,164.000 250.214 C 165.210 250.072,167.100 249.788,168.200 249.582 C 171.541 248.958,180.209 247.982,187.536 247.405 C 197.284 246.637,197.872 245.935,193.569 240.200 C 186.355 230.586,183.514 217.287,186.689 208.000 C 189.083 200.999,189.171 201.072,178.436 201.167 C 169.339 201.247,160.523 200.340,155.000 198.755 C 151.222 197.671,143.802 194.899,142.034 193.911 C 132.765 188.732,129.653 186.461,123.800 180.604 C 119.044 175.844,117.697 174.123,113.784 167.800 C 111.076 163.425,106.871 152.654,106.209 148.400 C 106.055 147.410,105.675 145.700,105.365 144.600 C 105.023 143.386,104.730 139.861,104.619 135.635 C 104.486 130.528,104.299 128.583,103.919 128.341 C 103.633 128.160,88.430 128.009,70.133 128.006 C 51.836 128.003,36.562 127.884,36.192 127.742 C 35.677 127.544,47.613 115.388,86.658 76.342 L 137.799 25.200 240.676 25.200 C 297.258 25.200,343.647 25.353,343.763 25.540 M177.800 65.449 C 177.360 65.560,175.200 66.093,173.000 66.633 C 161.893 69.361,152.027 77.169,147.520 86.800 C 145.805 90.465,145.201 91.994,145.182 92.714 C 145.173 93.091,144.904 94.120,144.584 95.000 C 142.122 101.785,142.099 118.392,144.537 129.488 C 144.865 130.979,145.440 133.640,145.816 135.400 C 146.665 139.382,148.212 144.477,149.229 146.644 C 149.653 147.548,150.000 148.470,150.000 148.693 C 150.000 148.916,150.377 149.976,150.837 151.049 C 166.252 186.957,195.549 198.904,221.809 179.989 C 233.292 171.717,238.085 156.637,236.018 135.279 C 235.674 131.715,235.382 130.116,233.524 121.600 C 232.684 117.749,228.757 105.434,227.785 103.600 C 227.053 102.221,225.200 98.095,225.200 97.846 C 225.200 97.734,224.075 95.788,222.700 93.521 C 213.664 78.627,203.087 69.409,191.725 66.524 C 187.928 65.560,179.833 64.935,177.800 65.449 M189.061 66.831 C 198.921 68.791,211.225 77.264,216.609 85.800 C 217.025 86.460,217.783 87.514,218.292 88.142 C 219.931 90.161,224.652 98.512,225.789 101.400 C 226.394 102.940,227.029 104.380,227.199 104.600 C 227.705 105.256,231.881 118.375,232.546 121.400 C 240.446 157.336,232.966 177.241,208.288 185.947 C 197.836 189.634,182.558 187.426,174.638 181.083 C 173.737 180.361,172.550 179.479,172.000 179.122 C 166.668 175.660,157.163 162.900,152.989 153.600 C 142.417 130.042,140.628 103.612,148.475 86.902 C 155.231 72.517,173.133 63.663,189.061 66.831 M195.200 259.220 C 194.210 259.397,192.171 259.554,190.669 259.570 C 184.129 259.641,167.276 262.845,160.600 265.287 C 158.840 265.931,156.794 266.639,156.054 266.860 C 140.949 271.382,127.654 283.833,122.701 298.097 L 121.415 301.800 121.432 310.600 C 121.467 328.084,129.035 341.085,145.000 351.088 C 147.388 352.584,155.998 356.800,156.666 356.800 C 156.924 356.800,157.645 357.061,158.268 357.380 C 159.578 358.051,162.765 359.052,166.200 359.873 C 176.216 362.266,179.130 362.749,183.800 362.789 C 185.340 362.802,187.680 363.073,189.000 363.392 C 191.784 364.064,200.967 364.187,203.400 363.585 C 204.280 363.367,207.160 363.011,209.800 362.793 C 212.440 362.576,215.680 362.142,217.000 361.828 C 218.320 361.515,220.210 361.081,221.200 360.863 C 224.432 360.152,227.792 359.144,228.180 358.768 C 228.389 358.566,228.867 358.400,229.242 358.400 C 231.488 358.400,241.934 352.152,246.295 348.200 C 260.936 334.932,264.421 313.519,254.693 296.600 C 252.594 292.949,247.786 286.863,244.455 283.643 C 237.482 276.899,214.994 260.136,211.690 259.218 C 209.975 258.742,197.880 258.744,195.200 259.220 M213.011 260.676 C 215.593 262.038,231.017 273.390,236.361 277.861 C 237.109 278.488,238.909 279.994,240.361 281.209 C 241.812 282.424,243.516 283.864,244.146 284.409 C 258.633 296.938,263.368 319.356,254.963 335.629 C 248.491 348.161,236.323 356.703,219.600 360.454 C 218.610 360.676,216.630 361.123,215.200 361.447 C 209.189 362.809,187.686 363.149,180.200 362.000 C 171.952 360.734,160.766 358.011,158.200 356.644 C 157.540 356.293,156.812 356.004,156.582 356.002 C 155.863 355.998,148.838 352.432,145.634 350.445 C 139.845 346.854,132.759 340.407,129.724 335.969 C 128.042 333.510,125.200 328.423,125.200 327.872 C 125.200 327.621,124.859 326.512,124.443 325.408 C 122.193 319.444,122.199 319.484,122.211 310.400 C 122.222 301.134,122.106 301.835,124.867 294.400 C 130.538 279.128,151.354 266.376,177.400 262.219 C 187.679 260.579,189.068 260.402,191.907 260.370 C 193.388 260.354,195.410 260.188,196.400 260.001 C 200.182 259.288,211.229 259.736,213.011 260.676 " stroke="none" fill="#bad1fc" fill-rule="evenodd"></path><path id="path4" d="M86.658 76.342 C 47.613 115.388,35.677 127.544,36.192 127.742 C 36.562 127.884,51.836 128.003,70.133 128.006 C 88.430 128.009,103.633 128.160,103.919 128.341 C 104.299 128.583,104.486 130.528,104.619 135.635 C 104.730 139.861,105.023 143.386,105.365 144.600 C 105.675 145.700,106.055 147.410,106.209 148.400 C 106.871 152.654,111.076 163.425,113.784 167.800 C 117.697 174.123,119.044 175.844,123.800 180.604 C 129.653 186.461,132.765 188.732,142.034 193.911 C 143.802 194.899,151.222 197.671,155.000 198.755 C 160.523 200.340,169.339 201.247,178.436 201.167 C 189.171 201.072,189.083 200.999,186.689 208.000 C 183.514 217.287,186.355 230.586,193.569 240.200 C 197.872 245.935,197.284 246.637,187.536 247.405 C 180.209 247.982,171.541 248.958,168.200 249.582 C 167.100 249.788,165.210 250.072,164.000 250.214 C 158.251 250.890,141.156 255.186,134.600 257.602 C 111.841 265.990,95.160 279.629,88.617 295.200 C 88.016 296.630,87.375 298.091,87.192 298.447 C 81.981 308.584,81.455 326.512,86.020 338.382 C 91.073 351.522,103.751 364.199,118.311 370.671 C 125.511 373.872,136.103 377.615,139.602 378.195 C 140.591 378.359,141.681 378.640,142.025 378.821 C 142.583 379.113,144.548 379.447,154.000 380.855 C 172.769 383.652,201.589 381.728,219.800 376.463 C 221.340 376.018,223.611 375.372,224.846 375.029 C 229.611 373.702,248.873 364.949,251.143 363.078 C 251.441 362.832,252.013 362.444,252.414 362.216 C 274.114 349.832,289.600 323.673,289.600 299.400 C 289.600 277.053,280.790 262.007,255.167 240.592 C 251.009 237.117,247.047 233.954,242.630 230.583 C 223.189 215.746,221.133 205.312,234.763 190.655 C 236.126 189.189,240.684 185.282,246.391 180.687 C 257.740 171.548,267.714 158.670,270.777 149.200 C 271.239 147.770,271.968 145.520,272.396 144.200 C 276.019 133.033,275.377 114.292,270.963 102.309 C 270.563 101.224,270.524 100.527,270.818 99.753 C 271.525 97.893,314.723 54.963,315.304 55.543 C 315.644 55.882,315.841 58.006,315.929 62.300 C 316.088 69.975,315.921 71.016,314.388 71.949 C 312.836 72.892,311.489 74.943,310.451 77.944 L 309.600 80.403 309.600 132.800 L 309.600 185.197 310.453 187.662 C 313.866 197.524,325.566 199.598,331.693 191.428 C 334.093 188.227,333.973 191.300,333.987 132.963 C 334.001 75.995,334.008 76.215,332.085 74.820 C 331.918 74.699,331.478 74.123,331.107 73.539 C 330.736 72.956,329.526 71.891,328.417 71.172 L 326.400 69.865 326.400 56.689 L 326.400 43.514 335.186 34.697 C 340.019 29.847,343.878 25.727,343.763 25.540 C 343.647 25.353,297.258 25.200,240.676 25.200 L 137.799 25.200 86.658 76.342 M342.673 26.300 C 341.558 27.469,339.656 29.372,339.113 29.862 C 338.831 30.116,337.042 31.916,335.138 33.862 C 333.235 35.808,331.165 37.887,330.538 38.482 C 329.912 39.077,328.912 40.067,328.315 40.682 C 327.719 41.297,326.954 42.032,326.615 42.316 C 325.630 43.142,325.693 70.307,326.681 70.687 C 328.213 71.274,332.400 75.963,332.402 77.093 C 332.404 77.702,332.674 78.716,333.002 79.346 C 333.722 80.726,333.928 185.350,333.212 185.793 C 332.998 185.925,332.704 186.932,332.558 188.031 C 332.379 189.384,332.052 190.158,331.547 190.429 C 331.136 190.648,330.800 191.067,330.800 191.358 C 330.800 191.649,330.323 192.228,329.739 192.644 C 329.156 193.060,328.365 193.696,327.981 194.058 C 327.598 194.419,326.501 194.845,325.542 195.003 C 324.584 195.161,323.577 195.471,323.304 195.691 C 322.788 196.108,321.980 196.011,318.585 195.125 C 316.378 194.550,315.882 194.223,313.378 191.692 C 312.101 190.401,311.625 189.559,311.428 188.246 C 311.284 187.290,310.910 186.169,310.596 185.754 C 309.742 184.626,309.712 80.737,310.565 80.029 C 310.876 79.771,311.253 78.669,311.403 77.580 C 311.553 76.491,311.820 75.600,311.998 75.600 C 312.176 75.600,312.694 74.967,313.151 74.194 C 313.607 73.420,314.410 72.624,314.935 72.425 C 317.052 71.620,317.141 54.400,315.028 54.400 C 314.419 54.400,312.400 56.198,312.400 56.741 C 312.400 56.909,311.713 57.564,310.872 58.196 C 310.032 58.828,308.828 60.032,308.196 60.872 C 307.564 61.713,306.903 62.400,306.727 62.400 C 306.551 62.400,305.857 62.985,305.186 63.700 C 302.990 66.037,298.898 70.171,297.402 71.562 C 296.596 72.312,295.660 73.347,295.322 73.862 C 294.984 74.378,294.546 74.800,294.348 74.800 C 294.149 74.800,293.495 75.352,292.894 76.027 C 292.292 76.702,291.297 77.737,290.682 78.327 C 290.067 78.917,289.077 79.912,288.482 80.538 C 287.887 81.165,285.808 83.235,283.862 85.138 C 281.916 87.042,280.116 88.832,279.862 89.115 C 279.608 89.399,278.897 90.119,278.282 90.715 C 277.667 91.312,276.677 92.330,276.082 92.979 C 274.387 94.826,272.230 96.796,271.900 96.798 C 271.735 96.799,271.600 97.030,271.600 97.311 C 271.600 97.592,271.240 98.130,270.800 98.507 C 269.838 99.331,269.713 102.040,270.562 103.667 C 270.868 104.254,271.248 105.514,271.407 106.467 C 271.565 107.420,271.949 108.697,272.260 109.305 C 272.571 109.913,272.932 111.893,273.063 113.705 C 273.193 115.517,273.547 117.983,273.850 119.184 C 274.561 122.005,274.556 128.653,273.842 131.542 C 273.534 132.784,273.171 135.406,273.034 137.368 C 272.897 139.331,272.613 141.143,272.404 141.395 C 272.194 141.648,271.820 142.801,271.572 143.958 C 271.323 145.115,270.869 146.543,270.563 147.131 C 270.256 147.719,270.004 148.456,270.002 148.770 C 269.997 150.036,266.236 156.937,262.709 162.152 C 259.571 166.792,250.591 176.216,246.100 179.583 C 244.505 180.779,243.200 181.902,243.200 182.078 C 243.200 182.255,242.939 182.400,242.620 182.400 C 242.301 182.400,241.896 182.641,241.720 182.935 C 241.544 183.230,241.105 183.635,240.744 183.835 C 238.323 185.180,229.200 194.761,229.200 195.959 C 229.200 196.201,229.059 196.400,228.886 196.400 C 228.401 196.400,226.467 200.734,225.799 203.320 C 224.659 207.734,225.275 212.895,227.464 217.253 C 228.672 219.657,235.541 226.663,239.415 229.442 C 240.303 230.079,241.293 230.823,241.615 231.096 C 242.511 231.857,248.607 236.522,249.589 237.200 C 250.068 237.530,251.031 238.313,251.730 238.941 C 252.428 239.568,253.763 240.713,254.696 241.485 C 255.628 242.257,257.463 243.904,258.774 245.145 C 260.084 246.385,261.931 248.089,262.878 248.930 C 265.629 251.375,273.441 259.143,274.882 260.867 C 275.607 261.735,276.578 262.865,277.040 263.379 C 277.502 263.892,278.303 265.007,278.819 265.856 C 279.335 266.705,279.882 267.490,280.034 267.600 C 280.186 267.710,280.597 268.430,280.947 269.200 C 281.297 269.970,281.756 270.870,281.967 271.200 C 282.178 271.530,282.741 272.700,283.218 273.800 C 283.696 274.900,284.333 276.340,284.634 277.000 C 287.977 284.321,289.603 299.627,287.990 308.600 C 287.793 309.700,287.427 311.770,287.178 313.200 C 286.701 315.934,285.484 320.134,284.552 322.260 C 284.249 322.954,283.999 323.764,283.998 324.060 C 283.997 324.357,283.277 326.021,282.398 327.758 C 281.519 329.495,280.800 331.132,280.800 331.396 C 280.800 331.660,280.440 332.202,280.000 332.600 C 279.560 332.998,279.200 333.628,279.200 334.000 C 279.200 334.372,278.840 335.002,278.400 335.400 C 277.960 335.798,277.600 336.366,277.600 336.662 C 277.600 336.958,277.450 337.200,277.267 337.200 C 277.084 337.200,276.331 338.132,275.592 339.272 C 274.854 340.411,273.677 341.896,272.977 342.572 C 272.276 343.247,271.635 344.021,271.552 344.292 C 271.357 344.923,264.808 351.558,262.229 353.736 C 261.146 354.651,259.865 355.773,259.383 356.229 C 258.167 357.378,249.548 363.086,247.928 363.815 C 247.198 364.143,246.330 364.576,246.000 364.776 C 245.446 365.112,237.165 369.084,233.356 370.842 C 232.452 371.259,231.506 371.600,231.255 371.600 C 231.003 371.600,230.125 371.960,229.304 372.400 C 228.484 372.840,227.534 373.200,227.195 373.200 C 226.856 373.200,226.190 373.472,225.716 373.804 C 225.241 374.136,223.986 374.520,222.927 374.658 C 221.867 374.795,220.730 375.131,220.400 375.405 C 220.070 375.678,218.902 376.032,217.805 376.190 C 216.708 376.348,215.358 376.709,214.805 376.992 C 214.252 377.275,212.630 377.634,211.200 377.791 C 209.770 377.947,208.077 378.328,207.439 378.637 C 206.800 378.947,205.270 379.204,204.039 379.208 C 202.807 379.213,200.630 379.494,199.200 379.834 C 192.393 381.450,157.995 381.600,154.200 380.030 C 153.540 379.757,151.290 379.431,149.200 379.305 C 147.110 379.180,145.040 378.850,144.600 378.571 C 144.160 378.292,142.720 377.934,141.400 377.775 C 140.080 377.615,138.640 377.251,138.200 376.966 C 137.760 376.681,136.458 376.324,135.307 376.173 C 134.156 376.022,133.009 375.652,132.758 375.349 C 132.507 375.047,131.826 374.800,131.245 374.800 C 130.664 374.800,129.516 374.440,128.696 374.000 C 127.875 373.560,127.011 373.200,126.777 373.200 C 126.542 373.200,125.327 372.735,124.075 372.168 C 122.824 371.600,121.440 370.986,121.000 370.803 C 118.706 369.848,113.574 367.187,111.400 365.824 C 107.379 363.303,106.977 363.023,103.927 360.603 C 102.677 359.611,101.521 358.800,101.359 358.800 C 100.862 358.800,95.899 353.417,94.200 351.036 C 93.320 349.803,92.375 348.480,92.100 348.097 C 90.718 346.171,89.600 344.322,89.600 343.961 C 89.600 343.740,89.242 342.893,88.805 342.079 C 87.695 340.015,86.403 336.945,86.382 336.322 C 86.373 336.035,86.097 335.080,85.770 334.200 C 83.084 326.980,83.098 314.416,85.801 305.570 C 88.239 297.594,91.368 290.689,94.234 286.965 C 94.897 286.104,95.724 284.950,96.072 284.400 C 97.910 281.499,105.924 274.335,111.826 270.318 C 116.592 267.074,126.362 261.612,127.415 261.603 C 127.644 261.602,128.537 261.240,129.400 260.800 C 130.263 260.360,131.163 260.000,131.400 260.000 C 131.637 260.000,132.537 259.640,133.400 259.200 C 134.263 258.760,135.287 258.400,135.676 258.400 C 136.066 258.400,137.062 258.146,137.892 257.835 C 139.292 257.311,144.286 255.844,149.000 254.572 C 158.648 251.969,173.051 249.730,187.242 248.628 C 195.835 247.960,197.200 247.424,197.200 244.714 C 197.200 243.886,195.855 241.337,195.029 240.600 C 194.503 240.131,192.039 236.401,190.954 234.432 C 188.546 230.062,188.000 228.964,188.000 228.498 C 188.000 228.213,187.640 226.956,187.200 225.704 C 186.539 223.823,186.400 222.402,186.400 217.529 C 186.400 212.573,186.528 211.305,187.200 209.600 C 187.640 208.484,188.006 207.082,188.013 206.485 C 188.020 205.888,188.290 205.051,188.613 204.624 C 189.469 203.491,189.332 201.861,188.300 200.913 C 187.442 200.126,186.824 200.077,175.200 199.886 C 165.944 199.734,162.517 199.540,161.000 199.082 C 159.900 198.750,158.280 198.360,157.400 198.214 C 145.581 196.262,128.734 185.930,120.200 175.400 C 119.540 174.585,118.820 173.712,118.600 173.460 C 117.693 172.417,116.000 169.727,116.000 169.327 C 116.000 169.091,115.774 168.711,115.499 168.482 C 115.223 168.253,114.374 166.836,113.613 165.333 C 112.851 163.830,112.123 162.510,111.994 162.400 C 111.866 162.290,111.538 161.435,111.264 160.500 C 110.991 159.565,110.595 158.800,110.384 158.800 C 110.173 158.800,110.000 158.388,110.000 157.885 C 110.000 157.381,109.640 156.263,109.200 155.400 C 108.760 154.537,108.400 153.554,108.400 153.215 C 108.400 152.877,108.050 151.520,107.623 150.200 C 106.227 145.892,105.249 138.703,105.221 132.543 C 105.204 128.860,105.090 128.043,104.567 127.843 C 104.219 127.709,88.739 127.600,70.166 127.600 L 36.398 127.600 87.299 76.632 L 138.200 25.665 240.770 25.632 C 338.444 25.602,343.308 25.633,342.673 26.300 M177.600 64.457 C 177.050 64.680,175.541 65.037,174.247 65.249 C 172.952 65.461,171.386 65.897,170.766 66.217 C 170.147 66.538,169.336 66.800,168.964 66.800 C 167.903 66.800,163.155 69.072,160.200 70.994 C 153.255 75.512,147.103 83.386,144.572 90.998 C 142.062 98.545,140.819 112.347,141.942 120.200 C 144.435 137.636,148.288 150.212,154.198 160.200 C 154.719 161.080,155.452 162.340,155.828 163.000 C 156.204 163.660,156.622 164.290,156.756 164.400 C 156.891 164.510,157.241 165.067,157.535 165.638 C 159.738 169.922,170.354 181.122,174.301 183.327 C 174.767 183.587,176.105 184.355,177.274 185.033 C 179.338 186.230,181.687 187.205,185.788 188.567 C 187.424 189.110,194.049 190.081,196.400 190.122 C 198.567 190.159,205.885 189.044,207.845 188.377 C 212.223 186.887,212.682 186.660,221.134 181.800 C 224.611 179.801,231.663 171.891,233.081 168.400 C 233.394 167.630,233.909 166.433,234.225 165.740 C 234.541 165.046,234.800 164.282,234.800 164.041 C 234.800 163.800,235.158 162.567,235.596 161.302 C 237.867 154.734,237.999 133.033,235.805 126.815 C 235.472 125.871,235.200 124.706,235.200 124.225 C 235.200 118.748,227.246 98.154,222.342 90.936 C 221.604 89.850,220.820 88.670,220.600 88.315 C 213.594 77.005,200.995 67.242,191.000 65.379 C 189.460 65.092,187.693 64.665,187.074 64.429 C 185.664 63.892,178.942 63.912,177.600 64.457 M191.725 66.524 C 203.087 69.409,213.664 78.627,222.700 93.521 C 224.075 95.788,225.200 97.734,225.200 97.846 C 225.200 98.095,227.053 102.221,227.785 103.600 C 228.757 105.434,232.684 117.749,233.524 121.600 C 235.382 130.116,235.674 131.715,236.018 135.279 C 238.085 156.637,233.292 171.717,221.809 179.989 C 195.549 198.904,166.252 186.957,150.837 151.049 C 150.377 149.976,150.000 148.916,150.000 148.693 C 150.000 148.470,149.653 147.548,149.229 146.644 C 148.212 144.477,146.665 139.382,145.816 135.400 C 145.440 133.640,144.865 130.979,144.537 129.488 C 142.099 118.392,142.122 101.785,144.584 95.000 C 144.904 94.120,145.173 93.091,145.182 92.714 C 145.201 91.994,145.805 90.465,147.520 86.800 C 152.027 77.169,161.893 69.361,173.000 66.633 C 175.200 66.093,177.360 65.560,177.800 65.449 C 179.833 64.935,187.928 65.560,191.725 66.524 M195.400 258.212 C 194.300 258.527,192.050 258.793,190.400 258.803 C 186.246 258.829,180.049 259.464,179.476 259.923 C 179.214 260.133,177.560 260.432,175.800 260.589 C 174.040 260.745,172.060 261.114,171.400 261.408 C 170.740 261.702,169.210 262.066,168.000 262.218 C 166.790 262.370,165.314 262.743,164.720 263.047 C 164.126 263.351,163.219 263.600,162.704 263.600 C 162.190 263.600,161.063 263.960,160.200 264.400 C 159.337 264.840,158.351 265.200,158.009 265.200 C 157.668 265.200,156.716 265.560,155.896 266.000 C 155.075 266.440,154.143 266.800,153.825 266.800 C 153.200 266.800,147.434 269.363,144.200 271.078 C 142.426 272.019,141.290 272.782,137.633 275.485 C 135.285 277.222,129.634 283.242,127.953 285.800 C 125.280 289.865,123.334 293.255,123.015 294.400 C 122.862 294.950,122.470 295.990,122.144 296.711 C 121.818 297.432,121.385 299.052,121.180 300.311 C 120.976 301.570,120.626 303.229,120.404 303.997 C 118.604 310.222,120.812 322.929,125.216 331.690 C 126.132 333.511,127.042 335.060,127.240 335.133 C 127.438 335.207,127.600 335.488,127.600 335.758 C 127.600 336.028,127.933 336.606,128.339 337.043 C 128.746 337.479,129.151 338.047,129.239 338.305 C 129.535 339.168,134.181 344.249,135.866 345.553 C 136.783 346.262,137.953 347.247,138.466 347.742 C 139.901 349.125,145.918 352.930,148.600 354.151 C 149.920 354.752,151.720 355.573,152.600 355.974 C 156.991 357.979,158.096 358.400,158.962 358.400 C 159.479 358.400,160.119 358.661,160.384 358.980 C 160.649 359.300,161.706 359.675,162.733 359.814 C 163.760 359.954,165.223 360.349,165.984 360.692 C 166.745 361.036,168.185 361.397,169.184 361.495 C 170.183 361.592,171.722 361.934,172.604 362.254 C 173.486 362.574,175.916 363.014,178.004 363.232 C 180.092 363.450,183.150 363.795,184.800 363.998 C 191.253 364.794,200.779 364.893,205.800 364.217 C 208.440 363.862,212.220 363.384,214.200 363.156 C 216.180 362.927,218.340 362.501,219.000 362.208 C 219.660 361.915,221.149 361.577,222.308 361.456 C 223.467 361.335,224.907 360.969,225.508 360.642 C 226.109 360.315,227.257 359.942,228.060 359.813 C 228.863 359.684,229.740 359.314,230.009 358.989 C 230.278 358.665,230.845 358.400,231.270 358.400 C 231.694 358.400,232.797 358.009,233.721 357.531 C 234.644 357.054,235.723 356.507,236.118 356.317 C 245.044 352.014,252.407 344.716,257.183 335.436 C 257.852 334.136,258.400 332.761,258.400 332.380 C 258.400 331.999,258.756 330.903,259.191 329.944 C 259.626 328.985,259.986 327.547,259.991 326.749 C 259.996 325.951,260.270 324.651,260.600 323.862 C 261.418 321.903,261.410 312.081,260.588 309.800 C 260.271 308.920,260.009 307.653,260.006 306.985 C 260.003 306.316,259.640 305.063,259.200 304.200 C 258.760 303.337,258.400 302.299,258.400 301.893 C 258.400 300.983,253.777 292.959,252.069 290.903 C 251.382 290.076,249.922 288.260,248.825 286.868 C 246.382 283.766,244.595 282.015,240.255 278.467 C 238.411 276.960,236.654 275.524,236.351 275.276 C 233.925 273.289,231.170 271.200,230.977 271.200 C 230.848 271.200,230.490 270.975,230.181 270.700 C 229.873 270.425,229.211 269.893,228.710 269.517 C 228.210 269.141,227.234 268.376,226.542 267.817 C 225.850 267.258,225.187 266.800,225.067 266.800 C 224.947 266.800,223.416 265.720,221.664 264.400 C 219.912 263.080,218.281 262.000,218.040 262.000 C 217.798 262.000,217.600 261.850,217.600 261.667 C 217.600 261.216,213.829 258.800,213.124 258.800 C 212.814 258.800,212.335 258.575,212.061 258.300 C 211.296 257.534,198.015 257.464,195.400 258.212 M211.690 259.218 C 213.996 259.859,229.448 270.938,239.206 278.947 C 256.778 293.371,263.644 310.926,258.623 328.594 C 256.078 337.551,250.395 345.482,242.051 351.724 C 239.711 353.474,230.260 358.400,229.242 358.400 C 228.867 358.400,228.389 358.566,228.180 358.768 C 227.792 359.144,224.432 360.152,221.200 360.863 C 220.210 361.081,218.320 361.515,217.000 361.828 C 215.680 362.142,212.440 362.576,209.800 362.793 C 207.160 363.011,204.280 363.367,203.400 363.585 C 200.967 364.187,191.784 364.064,189.000 363.392 C 187.680 363.073,185.340 362.802,183.800 362.789 C 179.130 362.749,176.216 362.266,166.200 359.873 C 162.765 359.052,159.578 358.051,158.268 357.380 C 157.645 357.061,156.924 356.800,156.666 356.800 C 155.998 356.800,147.388 352.584,145.000 351.088 C 135.703 345.263,128.093 336.732,124.582 328.200 C 121.630 321.025,121.451 320.025,121.432 310.600 L 121.415 301.800 122.701 298.097 C 127.654 283.833,140.949 271.382,156.054 266.860 C 156.794 266.639,158.840 265.931,160.600 265.287 C 167.276 262.845,184.129 259.641,190.669 259.570 C 192.171 259.554,194.210 259.397,195.200 259.220 C 197.880 258.744,209.975 258.742,211.690 259.218 " stroke="none" fill="#cacdd1" fill-rule="evenodd"></path></g></svg>